/* XPM */
static char *_707891eb100404fb99220140718b92aPSiHOecAs3kkYy26[] = {
/* columns rows colors chars-per-pixel */
"32 32 175 2 ",
"   c None",
".  c #2F2F35",
"X  c #393738",
"o  c #3B3A3C",
"O  c #323339",
"+  c #3C3C41",
"@  c #414044",
"#  c #4B4645",
"$  c #46454A",
"%  c #494648",
"&  c #4B494C",
"*  c #554F4C",
"=  c #524F51",
"-  c #515156",
";  c #595352",
":  c #55555B",
">  c #5E5A5C",
",  c #60564F",
"<  c #625C5B",
"1  c #6D5E52",
"2  c #69625D",
"3  c #7C6A5C",
"4  c #5D5E64",
"5  c #656265",
"6  c #6C6562",
"7  c #6F6864",
"8  c #706760",
"9  c #746B66",
"0  c #796D63",
"q  c #746D6B",
"w  c #77706E",
"e  c #7D746D",
"r  c #7E7773",
"t  c #7F7875",
"y  c #7E7A7D",
"u  c #84715F",
"i  c #8E755E",
"p  c #857464",
"a  c #8A7666",
"s  c #837469",
"d  c #897769",
"f  c #8D7C6C",
"g  c #947E6A",
"h  c #847B75",
"j  c #8D7E72",
"k  c #847E7B",
"l  c #887F78",
"z  c #97816D",
"x  c #9E846B",
"c  c #8E8176",
"v  c #86807F",
"b  c #8B827D",
"n  c #928374",
"m  c #9B8774",
"M  c #9E8975",
"N  c #968578",
"B  c #9E8C7B",
"V  c #A58566",
"C  c #AB8B6C",
"Z  c #A78667",
"A  c #B28E6C",
"S  c #B6916D",
"D  c #A18A73",
"F  c #AE8F71",
"G  c #A28E7A",
"H  c #AF9173",
"J  c #A6917C",
"K  c #AC947D",
"L  c #AF987F",
"P  c #B39373",
"I  c #B99675",
"U  c #BA9977",
"Y  c #B59779",
"T  c #B5997C",
"R  c #BB9B7C",
"E  c #C09B77",
"W  c #C19E7A",
"Q  c #C3A07D",
"!  c #C8A37C",
"~  c #7F7F84",
"^  c #8A8481",
"/  c #918A85",
"(  c #9C8F83",
")  c #9C938D",
"_  c #979393",
"`  c #9C9591",
"'  c #A49484",
"]  c #A99683",
"[  c #A2978E",
"{  c #A5988B",
"}  c #AA9A8B",
"|  c #AC9986",
" . c #B69C82",
".. c #BC9F82",
"X. c #A29D9A",
"o. c #A99E93",
"O. c #BEA183",
"+. c #B6A18A",
"@. c #BCA48A",
"#. c #ADA29A",
"$. c #B9A794",
"%. c #BDAA94",
"&. c #B3A89F",
"*. c #B3A394",
"=. c #ABA5A0",
"-. c #ACAAAB",
";. c #B7ACA2",
":. c #BCAFA1",
">. c #BEB3A6",
",. c #B7B1AB",
"<. c #B8B0A9",
"1. c #B9B5B2",
"2. c #C3A484",
"3. c #C8A785",
"4. c #CDAA84",
"5. c #C3A689",
"6. c #C4AA8C",
"7. c #CCAD8A",
"8. c #D3AF89",
"9. c #D4AD84",
"0. c #CDB08F",
"q. c #D4B28D",
"w. c #D9B68E",
"e. c #C3AD93",
"r. c #CAAF90",
"t. c #CBB396",
"y. c #CAB49A",
"u. c #D4B592",
"i. c #D9B792",
"p. c #D7B997",
"a. c #DABA95",
"s. c #D6BA9A",
"d. c #DCBD9A",
"f. c #C1B2A3",
"g. c #C1B7AD",
"h. c #C7BAAD",
"j. c #CABCAB",
"k. c #D7BFA2",
"l. c #DEC09E",
"z. c #E1C29D",
"x. c #DEC2A2",
"c. c #D4C1AB",
"v. c #DCC5A8",
"b. c #CEC2B2",
"n. c #CEC5BA",
"m. c #D6C5B1",
"M. c #DCCEBD",
"N. c #DED0BF",
"B. c #E2C5A2",
"V. c #E7C9A6",
"C. c #E8CBA6",
"Z. c #E5CBAB",
"A. c #E9CEAD",
"S. c #E6CFB2",
"D. c #E8CFB0",
"F. c #E7D1B4",
"G. c #EBD3B5",
"H. c #E3D2BB",
"J. c #EBD6B9",
"K. c #EED9BD",
"L. c #F2DABC",
"P. c #D1CECD",
"I. c #DDD1C3",
"U. c #E5D6C2",
"Y. c #EEDDC5",
"T. c #ECDDCA",
"R. c #F1DDC2",
"E. c #F0DFC9",
"W. c #E1DFDE",
"Q. c #F4E1C7",
"!. c #F6E3CA",
"~. c #E3E1E1",
"^. c #F0ECEA",
"/. c #F7F6F6",
"(. c #F8F6F5",
/* pixels */
"                                                                ",
"              5 < 5 ~ -.-.~ - + . O + $ % % - < q               ",
"              e l { :.M.M.>.f u f p a d a p 0 9 h               ",
"              Z.C.L.J.Z.Z.Z.q.9.q.4.Q A S A Z U @.              ",
"              A.A.K.J.S.S.J.i.i.d.! E I S C C R 7.              ",
"              c.m.I.T.T.N.j.$.] ] m m M M M M J +.              ",
"              ^ _ -.W./.~.-.y 5 ; > 7 r k v v k k               ",
"            j.j.H.U.Y.Y.Q.U.y.t.t.@.@.@... .Y T @.%.            ",
"            Y.L.!.!.L.S.K.Y.x.d.x.q.3.Q Y Y Y U r.y.            ",
"            F.D.R.Q.G.B.J.J.d.p.s.4.U I P P C C O.6.            ",
"            ( { ;.n.I.U.b.>.( c f p f n n n j j c l             ",
"            h b _ 1.^./.P.X.w > * ; 7 r k b b l l l             ",
"            Y.L.!.R.l.d.J.H.u.p.k.r.5.@.I I Y H 5.t.            ",
"            J.L.!.E.z.a.G.Y.d.d.x.u.7.5.U I H H 2.r.            ",
"            J.J.Q.R.B.z.J.J.d.p.d.7.5.5.P P P H @.6.            ",
"            F.G.R.K.B.d.F.A.a.a.p.7.2.5.P P H H R 5.            ",
"            S.F.J.L.B.z.Z.x.u.i.d.7.R 2.S H H H R 6.            ",
"            S.Z.R.J.B.z.B.x.q.a.d.7.5.2.S S H C R 6.            ",
"            J.A.R.K.B.d.B.x.q.p.s.7.5.2.P P P C O.t.            ",
"            %.k.J.L.z.a.V.B.w.z.x.8.4.3.I U H Z T B             ",
"            9 q h ) g.h.f.} N m n f f j d e e e q 2             ",
"            y.@.] o.,.,.=./ r 9 2 < 2 8 0 0 s d M L             ",
"            Z.B.V.Z.B.q.k.d.4.4.3.R P U Z P Z Z R O.            ",
"              Z.A.Z.x.i.d.x.9.7.7.Q R U Z P C C O.              ",
"              e.v.G.C.w.z.C.4.8.d.7.2.W I P P P M               ",
"              ^ ^ ) ;.f.f.$.J ] | J G m j s q 8 7               ",
"              s.e.*.#.#.X./ k h w w q q 0 s p g K               ",
"              s.d.V.x.8.7.q.Q 2.2.I P H C H C I Y               ",
"              B  .x.x.w.q.d.9.q.u.3.R I S P Z i 3               ",
"                > 6 h n m J V D G g a 3 2 ; # o %               ",
"                  : : 4 4 - & $ @ + o o o o X                   ",
"                                                                "
};
