/* XPM */
static char *_f02520ebc8f4720e52ac702156f941e8Umk2eBXq3mRSQBa[] = {
/* columns rows colors chars-per-pixel */
"116 128 11 1 ",
"  c None",
". c black",
"X c #58360C",
"o c #4A4949",
"O c gray37",
"+ c #8D591A",
"@ c #A86514",
"# c #C47B22",
"$ c #979593",
"% c #C6C4C1",
"& c #E1E1E1",
/* pixels */
"                  ................................................................................                  ",
"                  ................................................................................                  ",
"                ..ooOOOOOO$$$$%%%%%%&&&&&&%%%%%%$$$$$$$$$$$$$$$$$$$$$$OOOOOOOOOOOOOOOOOOooooooooOO..                ",
"                ..ooOOOOOO$$$$%%%%%%&&&&&&%%%%%%$$$$$$$$$$$$$$$$$$$$$$OOOOOOOOOOOOOOOOOOooooooooOO..                ",
"              ..ooOOOOOO$$$$%%%%%%&&&&&&&&%%%%%%$$$$$$$$$$$$$$$$$$$$$$OOOOOOOOOOOOOOOOOOOOooooooooOO..              ",
"              ..ooOOOOOO$$$$%%%%%%&&&&&&&&%%%%%%$$$$$$$$$$$$$$$$$$$$$$OOOOOOOOOOOOOOOOOOOOooooooooOO..              ",
"            ..ooOOOOOO$$$$%%%%%%&&&&&&&&%%%%%%%%$$$$$$$$$$$$$$$$$$$$$$OOOOOOOOOOOOOOOOOOOOooooooooooOO..            ",
"            ..ooOOOOOO$$$$%%%%%%&&&&&&&&%%%%%%%%$$$$$$$$$$$$$$$$$$$$$$OOOOOOOOOOOOOOOOOOOOooooooooooOO..            ",
"            ..ooOOOOOO$$$$%%%%%%&&&&&&&&%%%%%%%%$$$$$$$$$$$$$$$$$$$$$$OOOOOOOOOOOOOOOOOOOOOOooooooooOO..            ",
"            ..ooOOOOOO$$$$%%%%%%&&&&&&&&%%%%%%%%$$$$$$$$$$$$$$$$$$$$$$OOOOOOOOOOOOOOOOOOOOOOooooooooOO..            ",
"          ..++++++++++++XX@@############XX########@@@@@@@@@@XX@@@@@@@@@@@@@@++++++++XX++++++++++++++XX++..          ",
"          ..++++++++++++XX@@############XX########@@@@@@@@@@XX@@@@@@@@@@@@@@++++++++XX++++++++++++++XX++..          ",
"          ..++++++++++XX@@@@############XX########@@@@@@@@@@XX@@@@@@@@@@@@@@++++++++XX++++++++++++++XX++..          ",
"          ..++++++++++XX@@@@############XX########@@@@@@@@@@XX@@@@@@@@@@@@@@++++++++XX++++++++++++++XX++..          ",
"        ..++++++++++++XX@@############XX##########@@@@@@@@@@XX@@@@@@@@@@@@@@++++++++XX++++++++++++++++XX++..        ",
"        ..++++++++++++XX@@############XX##########@@@@@@@@@@XX@@@@@@@@@@@@@@++++++++XX++++++++++++++++XX++..        ",
"        ..++++++++++XX@@@@############XX##########@@@@@@@@@@XX@@@@@@@@@@@@@@++++++++++XX++++++++++++++XX++..        ",
"        ..++++++++++XX@@@@############XX##########@@@@@@@@@@XX@@@@@@@@@@@@@@++++++++++XX++++++++++++++XX++..        ",
"      ..++++++++++++XX@@##############XX########@@@@@@@@@@@@XX@@@@@@@@@@@@@@@@++++++++XX++++++++++++++XX++++..      ",
"      ..++++++++++++XX@@##############XX########@@@@@@@@@@@@XX@@@@@@@@@@@@@@@@++++++++XX++++++++++++++XX++++..      ",
"      ..++++++++++XX@@@@##############XX########@@@@@@@@@@@@XX@@@@@@@@@@@@@@@@++++++++XX++++++++++++++++XX++..      ",
"      ..++++++++++XX@@@@##############XX########@@@@@@@@@@@@XX@@@@@@@@@@@@@@@@++++++++XX++++++++++++++++XX++..      ",
"    ..++++++++++++XX@@@@############XX##########@@@@@@@@@@@@XX@@@@@@@@@@@@@@@@++++++++XX++++++++++++++++XX++++..    ",
"    ..++++++++++++XX@@@@############XX##########@@@@@@@@@@@@XX@@@@@@@@@@@@@@@@++++++++XX++++++++++++++++XX++++..    ",
"    ..++++++++++XX@@@@##############XX##########@@@@@@@@@@@@XX@@@@@@@@@@@@@@@@++++++++++XX++++++++++++++++XX++..    ",
"    ..++++++++++XX@@@@##############XX##########@@@@@@@@@@@@XX@@@@@@@@@@@@@@@@++++++++++XX++++++++++++++++XX++..    ",
"    ..++++++++++XX@@@@##############XX##########@@@@@@@@@@@@XX@@@@@@@@@@@@@@@@++++++++++XX++++++++++++++++XX++..    ",
"    ..++++++++++XX@@@@##############XX##########@@@@@@@@@@@@XX@@@@@@@@@@@@@@@@++++++++++XX++++++++++++++++XX++..    ",
"  ..ooOOOOOO$$$$%%%%%%%%&&&&&&&&%%%%%%%%$$$$$$$$$$$$$$$$$$$$$$$$$$$$$$$$$$$$OOOOOOOOOOOOOOOOOOOOOOOOooooooooOOOO..  ",
"  ..ooOOOOOO$$$$%%%%%%%%&&&&&&&&%%%%%%%%$$$$$$$$$$$$$$$$$$$$$$$$$$$$$$$$$$$$OOOOOOOOOOOOOOOOOOOOOOOOooooooooOOOO..  ",
"  ..ooOOOOOO$$$$%%%%%%%%&&&&&&&&%%%%%%%%$$$$$$$$$$$$$$$$$$$$$$$$$$$$$$$$$$$$OOOOOOOOOOOOOOOOOOOOOOOOooooooooOOOO..  ",
"  ..ooOOOOOO$$$$%%%%%%%%&&&&&&&&%%%%%%%%$$$$$$$$$$$$$$$$$$$$$$$$$$$$$$$$$$$$OOOOOOOOOOOOOOOOOOOOOOOOooooooooOOOO..  ",
"  ..ooOOOOOO$$$$%%%%%%%%&&&&&&&&%%%%%%%%$$$$$$$$$$$$$$$$$$$$$$$$$$$$$$$$$$$$OOOOOOOOOOOOOOOOOOOOOOOOooooooooOOOO..  ",
"  ..ooOOOOOO$$$$%%%%%%%%&&&&&&&&%%%%%%%%$$$$$$$$$$$$$$$$$$$$$$$$$$$$$$$$$$$$OOOOOOOOOOOOOOOOOOOOOOOOooooooooOOOO..  ",
"  ..ooOOOOOO$$$$%%%%%%%%&&&&&&&&%%%%%%%%$$$$$$$$$$$$$$$$$$$$$$$$$$$$$$$$$$$$OOOOOOOOOOOOOOOOOOOOOOOOooooooooOOOO..  ",
"  ..ooOOOOOO$$$$%%%%%%%%&&&&&&&&%%%%%%%%$$$$$$$$$$$$$$$$$$$$$$$$$$$$$$$$$$$$OOOOOOOOOOOOOOOOOOOOOOOOooooooooOOOO..  ",
"..++++++++++XX@@@@################XX##########@@@@@@@@@@@@@@XX@@@@@@@@@@@@@@@@++++++++++++XX++++++++++++++++++XX++..",
"..++++++++++XX@@@@################XX##########@@@@@@@@@@@@@@XX@@@@@@@@@@@@@@@@++++++++++++XX++++++++++++++++++XX++..",
"..++++++++++XX@@@@################XX##########@@@@@@@@@@@@@@XX@@@@@@@@@@@@@@@@++++++++++++XX++++++++++++++++++XX++..",
"..++++++++++XX@@@@################XX##########@@@@@@@@@@@@@@XX@@@@@@@@@@@@@@@@++++++++++++XX++++++++++++++++++XX++..",
"..++++++++++XX@@@@################XX##########@@@@@@@@@@@@@@XX@@@@@@@@@@@@@@@@++++++++++++XX++++++++++++++++++XX++..",
"..++++++++++XX@@@@################XX##########@@@@@@@@@@@@@@XX@@@@@@@@@@@@@@@@++++++++++++XX++++++++++++++++++XX++..",
"..++++++++++XX@@@@################XX##########@@@@@@@@@@@@@@XX@@@@@@@@@@@@@@@@++++++++++++XX++++++++++++++++++XX++..",
"..++++++++++XX@@@@################XX##########@@@@@@@@@@@@@@XX@@@@@@@@@@@@@@@@++++++++++++XX++++++++++++++++++XX++..",
"..++++++++XX@@@@@@################XX##########@@@@@@@@@@@@@@XX@@@@@@@@@@@@@@@@@@++++++++++XX++++++++++++++++++XX++..",
"..++++++++XX@@@@@@################XX##########@@@@@@@@@@@@@@XX@@@@@@@@@@@@@@@@@@++++++++++XX++++++++++++++++++XX++..",
"..++++++++XX@@@@##################XX##########@@@@@@@@@@@@@@XX@@@@@@@@@@@@@@@@@@++++++++++XX++++++++++++++++++XX++..",
"..++++++++XX@@@@##################XX##########@@@@@@@@@@@@@@XX@@@@@@@@@@@@@@@@@@++++++++++XX++++++++++++++++++XX++..",
"..++++++++XX@@@@################XX############@@@@@@@@@@@@@@XX@@@@@@@@@@@@@@@@@@++++++++++++XX++++++++++++++++XX++..",
"..++++++++XX@@@@################XX############@@@@@@@@@@@@@@XX@@@@@@@@@@@@@@@@@@++++++++++++XX++++++++++++++++XX++..",
"..++++++++XX@@@@################XX############@@@@@@@@@@@@@@XX@@@@@@@@@@@@@@@@@@++++++++++++XX++++++++++++++++XX++..",
"..++++++++XX@@@@################XX############@@@@@@@@@@@@@@XX@@@@@@@@@@@@@@@@@@++++++++++++XX++++++++++++++++XX++..",
"..++++++++XX@@@@################XX############@@@@@@@@@@@@@@XX@@@@@@@@@@@@@@@@@@++++++++++++XX++++++++++++++++XX++..",
"..++++++++XX@@@@################XX############@@@@@@@@@@@@@@XX@@@@@@@@@@@@@@@@@@++++++++++++XX++++++++++++++++XX++..",
"..++++++++XX@@@@################XX############@@@@@@@@@@@@@@XX@@@@@@@@@@@@@@@@@@++++++++++++XX++++++++++++++++XX++..",
"..++++++++XX@@@@################XX############@@@@@@@@@@@@@@XX@@@@@@@@@@@@@@@@@@++++++++++++XX++++++++++++++++XX++..",
"..++++++++XX@@@@################XX############@@@@@@@@@@@@@@XX@@@@@@@@@@@@@@@@@@++++++++++++XX++++++++++++++++XX++..",
"..++++++++XX@@@@################XX############@@@@@@@@@@@@@@XX@@@@@@@@@@@@@@@@@@++++++++++++XX++++++++++++++++XX++..",
"..++++++++XX@@@@################XX############@@@@@@@@@@@@@@XX@@@@@@@@@@@@@@@@@@++++++++++++XX++++++++++++++++XX++..",
"..++++++++XX@@@@################XX############@@@@@@@@@@@@@@XX@@@@@@@@@@@@@@@@@@++++++++++++XX++++++++++++++++XX++..",
"..++++++++XX@@@@################XX############@@@@@@@@@@@@@@XX@@@@@@@@@@@@@@@@@@++++++++++++XX++++++++++++++++XX++..",
"..++++++++XX@@@@################XX############@@@@@@@@@@@@@@XX@@@@@@@@@@@@@@@@@@++++++++++++XX++++++++++++++++XX++..",
"..++++++++XX@@@@################XX############@@@@@@@@@@@@@@XX@@@@@@@@@@@@@@@@@@++++++++++++XX++++++++++++++++XX++..",
"..++++++++XX@@@@################XX############@@@@@@@@@@@@@@XX@@@@@@@@@@@@@@@@@@++++++++++++XX++++++++++++++++XX++..",
"..++++++++XX@@@@################XX############@@@@@@@@@@@@@@XX@@@@@@@@@@@@@@@@@@++++++++++++XX++++++++++++++++XX++..",
"..++++++++XX@@@@################XX############@@@@@@@@@@@@@@XX@@@@@@@@@@@@@@@@@@++++++++++++XX++++++++++++++++XX++..",
"..++++++++XX@@@@################XX############@@@@@@@@@@@@@@XX@@@@@@@@@@@@@@@@@@++++++++++++XX++++++++++++++++XX++..",
"..++++++++XX@@@@################XX############@@@@@@@@@@@@@@XX@@@@@@@@@@@@@@@@@@++++++++++++XX++++++++++++++++XX++..",
"..++++++++XX@@@@################XX############@@@@@@@@@@@@@@XX@@@@@@@@@@@@@@@@@@++++++++++++XX++++++++++++++++XX++..",
"..++++++++XX@@@@################XX############@@@@@@@@@@@@@@XX@@@@@@@@@@@@@@@@@@++++++++++++XX++++++++++++++++XX++..",
"..++++++++XX@@@@################XX############@@@@@@@@@@@@@@XX@@@@@@@@@@@@@@@@@@++++++++++++XX++++++++++++++++XX++..",
"..++++++++XX@@@@################XX############@@@@@@@@@@@@@@XX@@@@@@@@@@@@@@@@@@++++++++++++XX++++++++++++++++XX++..",
"..++++++++XX@@@@################XX############@@@@@@@@@@@@@@XX@@@@@@@@@@@@@@@@@@++++++++++++XX++++++++++++++++XX++..",
"..++++++++XX@@@@################XX############@@@@@@@@@@@@@@XX@@@@@@@@@@@@@@@@@@++++++++++++XX++++++++++++++++XX++..",
"..++++++++XX@@@@################XX############@@@@@@@@@@@@@@XX@@@@@@@@@@@@@@@@@@++++++++++++XX++++++++++++++++XX++..",
"..++++++++XX@@@@################XX############@@@@@@@@@@@@@@XX@@@@@@@@@@@@@@@@@@++++++++++++XX++++++++++++++++XX++..",
"..++++++++XX@@@@################XX############@@@@@@@@@@@@@@XX@@@@@@@@@@@@@@@@@@++++++++++XX++++++++++++++++++XX++..",
"..++++++++XX@@@@################XX############@@@@@@@@@@@@@@XX@@@@@@@@@@@@@@@@@@++++++++++XX++++++++++++++++++XX++..",
"..++++++++XX@@@@################XX############@@@@@@@@@@@@@@XX@@@@@@@@@@@@@@@@@@++++++++++XX++++++++++++++++++XX++..",
"..++++++++XX@@@@################XX############@@@@@@@@@@@@@@XX@@@@@@@@@@@@@@@@@@++++++++++XX++++++++++++++++++XX++..",
"..++++++++XX@@@@##################XX##########@@@@@@@@@@@@@@XX@@@@@@@@@@@@@@@@@@++++++++++XX++++++++++++++++++XX++..",
"..++++++++XX@@@@##################XX##########@@@@@@@@@@@@@@XX@@@@@@@@@@@@@@@@@@++++++++++XX++++++++++++++++++XX++..",
"..++++++++XX@@@@@@################XX##########@@@@@@@@@@@@@@XX@@@@@@@@@@@@@@@@++++++++++++XX++++++++++++++++++XX++..",
"..++++++++XX@@@@@@################XX##########@@@@@@@@@@@@@@XX@@@@@@@@@@@@@@@@++++++++++++XX++++++++++++++++++XX++..",
"..++++++++++XX@@@@################XX##########@@@@@@@@@@@@@@XX@@@@@@@@@@@@@@@@++++++++++++XX++++++++++++++++++XX++..",
"..++++++++++XX@@@@################XX##########@@@@@@@@@@@@@@XX@@@@@@@@@@@@@@@@++++++++++++XX++++++++++++++++++XX++..",
"..++++++++++XX@@@@################XX##########@@@@@@@@@@@@@@XX@@@@@@@@@@@@@@@@++++++++++++XX++++++++++++++++++XX++..",
"..++++++++++XX@@@@################XX##########@@@@@@@@@@@@@@XX@@@@@@@@@@@@@@@@++++++++++++XX++++++++++++++++++XX++..",
"..++++++++++XX@@@@################XX##########@@@@@@@@@@@@@@XX@@@@@@@@@@@@@@@@++++++++++++XX++++++++++++++++++XX++..",
"..++++++++++XX@@@@################XX##########@@@@@@@@@@@@@@XX@@@@@@@@@@@@@@@@++++++++++++XX++++++++++++++++++XX++..",
"..++++++++++XX@@@@################XX##########@@@@@@@@@@@@@@XX@@@@@@@@@@@@@@@@++++++++++++XX++++++++++++++++++XX++..",
"..++++++++++XX@@@@################XX##########@@@@@@@@@@@@@@XX@@@@@@@@@@@@@@@@++++++++++++XX++++++++++++++++++XX++..",
"  ..ooOOOOOO$$$$%%%%%%%%&&&&&&&&%%%%%%%%$$$$$$$$$$$$$$$$$$$$$$$$$$$$$$$$$$$$OOOOOOOOOOOOOOOOOOOOOOOOooooooooOOOO..  ",
"  ..ooOOOOOO$$$$%%%%%%%%&&&&&&&&%%%%%%%%$$$$$$$$$$$$$$$$$$$$$$$$$$$$$$$$$$$$OOOOOOOOOOOOOOOOOOOOOOOOooooooooOOOO..  ",
"  ..ooOOOOOO$$$$%%%%%%%%&&&&&&&&%%%%%%%%$$$$$$$$$$$$$$$$$$$$$$$$$$$$$$$$$$$$OOOOOOOOOOOOOOOOOOOOOOOOooooooooOOOO..  ",
"  ..ooOOOOOO$$$$%%%%%%%%&&&&&&&&%%%%%%%%$$$$$$$$$$$$$$$$$$$$$$$$$$$$$$$$$$$$OOOOOOOOOOOOOOOOOOOOOOOOooooooooOOOO..  ",
"  ..ooOOOOOO$$$$%%%%%%%%&&&&&&&&%%%%%%%%$$$$$$$$$$$$$$$$$$$$$$$$$$$$$$$$$$$$OOOOOOOOOOOOOOOOOOOOOOOOooooooooOOOO..  ",
"  ..ooOOOOOO$$$$%%%%%%%%&&&&&&&&%%%%%%%%$$$$$$$$$$$$$$$$$$$$$$$$$$$$$$$$$$$$OOOOOOOOOOOOOOOOOOOOOOOOooooooooOOOO..  ",
"  ..ooOOOOOO$$$$%%%%%%%%&&&&&&&&%%%%%%%%$$$$$$$$$$$$$$$$$$$$$$$$$$$$$$$$$$$$OOOOOOOOOOOOOOOOOOOOOOOOooooooooOOOO..  ",
"  ..ooOOOOOO$$$$%%%%%%%%&&&&&&&&%%%%%%%%$$$$$$$$$$$$$$$$$$$$$$$$$$$$$$$$$$$$OOOOOOOOOOOOOOOOOOOOOOOOooooooooOOOO..  ",
"    ..++++++++++XX@@@@##############XX##########@@@@@@@@@@@@XX@@@@@@@@@@@@@@@@++++++++++XX++++++++++++++++XX++..    ",
"    ..++++++++++XX@@@@##############XX##########@@@@@@@@@@@@XX@@@@@@@@@@@@@@@@++++++++++XX++++++++++++++++XX++..    ",
"    ..++++++++++XX@@@@##############XX##########@@@@@@@@@@@@XX@@@@@@@@@@@@@@@@++++++++++XX++++++++++++++++XX++..    ",
"    ..++++++++++XX@@@@##############XX##########@@@@@@@@@@@@XX@@@@@@@@@@@@@@@@++++++++++XX++++++++++++++++XX++..    ",
"    ..++++++++++++XX@@@@############XX##########@@@@@@@@@@@@XX@@@@@@@@@@@@@@@@++++++++XX++++++++++++++++XX++++..    ",
"    ..++++++++++++XX@@@@############XX##########@@@@@@@@@@@@XX@@@@@@@@@@@@@@@@++++++++XX++++++++++++++++XX++++..    ",
"      ..++++++++++XX@@@@##############XX########@@@@@@@@@@@@XX@@@@@@@@@@@@@@@@++++++++XX++++++++++++++++XX++..      ",
"      ..++++++++++XX@@@@##############XX########@@@@@@@@@@@@XX@@@@@@@@@@@@@@@@++++++++XX++++++++++++++++XX++..      ",
"      ..++++++++++++XX@@##############XX########@@@@@@@@@@@@XX@@@@@@@@@@@@@@++++++++++XX++++++++++++++XX++++..      ",
"      ..++++++++++++XX@@##############XX########@@@@@@@@@@@@XX@@@@@@@@@@@@@@++++++++++XX++++++++++++++XX++++..      ",
"        ..++++++++++XX@@@@############XX##########@@@@@@@@@@XX@@@@@@@@@@@@@@++++++++++XX++++++++++++++XX++..        ",
"        ..++++++++++XX@@@@############XX##########@@@@@@@@@@XX@@@@@@@@@@@@@@++++++++++XX++++++++++++++XX++..        ",
"        ..++++++++++++XX@@############XX##########@@@@@@@@@@XX@@@@@@@@@@@@@@++++++++XX++++++++++++++++XX++..        ",
"        ..++++++++++++XX@@############XX##########@@@@@@@@@@XX@@@@@@@@@@@@@@++++++++XX++++++++++++++++XX++..        ",
"          ..++++++++++XX@@@@############XX########@@@@@@@@@@XX@@@@@@@@@@@@@@++++++++XX++++++++++++++XX++..          ",
"          ..++++++++++XX@@@@############XX########@@@@@@@@@@XX@@@@@@@@@@@@@@++++++++XX++++++++++++++XX++..          ",
"          ..++++++++++++XX@@############XX########@@@@@@@@@@XX@@@@@@@@@@@@@@++++++++XX++++++++++++++XX++..          ",
"          ..++++++++++++XX@@############XX########@@@@@@@@@@XX@@@@@@@@@@@@@@++++++++XX++++++++++++++XX++..          ",
"            ..ooOOOOOO$$$$%%%%%%&&&&&&&&%%%%%%%%$$$$$$$$$$$$$$$$$$$$$$OOOOOOOOOOOOOOOOOOOOOOooooooooOO..            ",
"            ..ooOOOOOO$$$$%%%%%%&&&&&&&&%%%%%%%%$$$$$$$$$$$$$$$$$$$$$$OOOOOOOOOOOOOOOOOOOOOOooooooooOO..            ",
"            ..ooOOOOOO$$$$%%%%%%&&&&&&&&%%%%%%%%$$$$$$$$$$$$$$$$$$$$$$OOOOOOOOOOOOOOOOOOOOooooooooooOO..            ",
"            ..ooOOOOOO$$$$%%%%%%&&&&&&&&%%%%%%%%$$$$$$$$$$$$$$$$$$$$$$OOOOOOOOOOOOOOOOOOOOooooooooooOO..            ",
"              ..ooOOOOOO$$$$%%%%%%&&&&&&&&%%%%%%$$$$$$$$$$$$$$$$$$$$$$OOOOOOOOOOOOOOOOOOOOooooooooOO..              ",
"              ..ooOOOOOO$$$$%%%%%%&&&&&&&&%%%%%%$$$$$$$$$$$$$$$$$$$$$$OOOOOOOOOOOOOOOOOOOOooooooooOO..              ",
"                ..ooOOOOOO$$$$%%%%%%&&&&&&%%%%%%$$$$$$$$$$$$$$$$$$$$$$OOOOOOOOOOOOOOOOOOooooooooOO..                ",
"                ..ooOOOOOO$$$$%%%%%%&&&&&&%%%%%%$$$$$$$$$$$$$$$$$$$$$$OOOOOOOOOOOOOOOOOOooooooooOO..                ",
"                  ................................................................................                  ",
"                  ................................................................................                  "
};
